Coordinates
version=1
nRows=8
nColumns=40
inDegrees=yes

Units are S.I. units (second, meters, Newtons, ...)
Angles are in degrees.

endheader
time	pelvis_tilt	pelvis_list	pelvis_rotation	pelvis_tx	pelvis_ty	pelvis_tz	hip_flexion_r	hip_adduction_r	hip_rotation_r	knee_angle_r	knee_angle_r_beta	ankle_angle_r	subtalar_angle_r	mtp_angle_r	hip_flexion_l	hip_adduction_l	hip_rotation_l	knee_angle_l	knee_angle_l_beta	ankle_angle_l	subtalar_angle_l	mtp_angle_l	lumbar_extension	lumbar_bending	lumbar_rotation	arm_flex_r	arm_add_r	arm_rot_r	elbow_flex_r	pro_sup_r	wrist_flex_r	wrist_dev_r	arm_flex_l	arm_add_l	arm_rot_l	elbow_flex_l	pro_sup_l	wrist_flex_l	wrist_dev_l
      1.53250000	     -5.94432600	     -5.52631294	     -2.59325859	      0.98443070	      0.92047724	      0.51466428	      5.89443766	     -1.47808739	    -12.87378244	     34.04413389	     34.04413389	     14.21177604	     -1.75085298	     -8.39464810	     28.14157706	     -8.44667023	     -7.78012167	     25.24440463	     25.24440463	      6.30487669	    -14.34667067	      3.13029575	     -8.30795446	      5.01529507	      3.28582629	     20.95061269	    -17.29146251	     -4.07702806	    131.42436873	     43.75685790	      0.00000000	      0.00000000	    -11.31506486	     -5.74049885	      0.17195767	     22.91417330	     44.90037862	      0.00000000	      0.00000000
      1.54400000	     -5.92398610	     -5.29216092	     -2.67057841	      0.98365444	      0.92182541	      0.51223629	      7.75093451	     -2.33373550	    -12.44712194	     37.99687167	     37.99687167	     12.71517733	     -3.73773155	     -8.80165494	     27.30134273	     -8.14403917	     -8.46906362	     24.81188007	     24.81188007	      6.78266883	    -13.66144041	      2.53501319	     -8.35598905	      4.77236064	      3.07116364	     18.44223164	    -17.38099408	     -3.75393370	    130.43705483	     43.76518003	      0.00000000	      0.00000000	    -10.32964955	     -5.89639564	     -0.00604733	     23.46808561	     44.96372789	      0.00000000	      0.00000000
      1.55550000	     -5.92552142	     -5.07090709	     -2.70947463	      0.98266089	      0.92304007	      0.50993952	      9.73951911	     -3.11037671	    -12.00585551	     41.97851601	     41.97851601	     11.16276353	     -5.80205744	     -8.90653366	     26.47276243	     -7.84032201	     -9.12044420	     24.31125547	     24.31125547	      7.21231021	    -12.86258745	      1.89435228	     -8.40554409	      4.51356008	      2.86890986	     15.88360930	    -17.46311184	     -3.47659538	    129.09490544	     43.78626653	      0.00000000	      0.00000000	     -9.26145172	     -6.09894458	     -0.21367679	     24.12440526	     45.03113592	      0.00000000	      0.00000000
      1.56700000	     -5.94000226	     -5.06884296	     -2.81054919	      0.98158704	      0.92417321	      0.50808798	     11.78024955	     -3.43154954	    -11.31539629	     45.82040591	     45.82040591	      9.67863603	     -8.32974887	     -8.31570226	     25.64191403	     -7.86629656	     -9.97268815	     23.78473254	     23.78473254	      7.38572141	    -11.76489025	      0.30064028	     -8.39787568	      4.46373087	      2.99377810	     13.13976391	    -17.66454093	     -3.86658633	    126.83328218	     43.87029029	      0.00000000	      0.00000000	     -8.18953410	     -6.32805065	     -0.92675399	     25.26457070	     45.21067754	      0.00000000	      0.00000000
      1.57850000	     -5.88826050	     -4.78815523	     -2.82178078	      0.98037255	      0.92521512	      0.50596501	     13.81069031	     -4.24880527	    -11.05617777	     49.65983874	     49.65983874	      8.42380068	     -9.90931184	     -7.97605513	     24.75944723	     -7.45434337	    -10.53687714	     23.23588895	     23.23588895	      7.70050745	    -11.15904254	     -0.17662671	     -8.50627292	      4.16544283	      2.61421813	     10.75259548	    -17.45547218	     -3.50747817	    125.15401886	     43.90107529	      0.00000000	      0.00000000	     -7.01705631	     -6.64280397	     -1.16470939	     25.93975739	     45.28050844	      0.00000000	      0.00000000
      1.59000000	     -5.89483652	     -4.67363158	     -2.85483821	      0.97901464	      0.92616239	      0.50413652	     15.91087719	     -4.69672064	    -10.63226311	     53.27231384	     53.27231384	      7.41607427	    -11.65751836	     -6.87987697	     23.92889065	     -7.24860955	    -11.10450172	     22.64053394	     22.64053394	      7.92947096	    -10.35880066	     -0.97317207	     -8.50963079	      4.00534957	      2.55815211	      8.28510537	    -17.50596085	     -3.57990152	    122.10145902	     43.99303809	      0.00000000	      0.00000000	     -5.77015454	     -6.92148037	     -1.61217591	     26.93568462	     45.38981983	      0.00000000	      0.00000000
      1.60150000	     -5.78148205	     -4.56604534	     -2.84950715	      0.97765695	      0.92707047	      0.50237675	     17.98115898	     -5.18272260	    -10.35208537	     56.98968518	     56.98968518	      8.17930156	    -12.04590955	     -1.53824554	     22.95706215	     -7.01127153	    -11.56318562	     21.95257984	     21.95257984	      7.49104407	    -10.01469750	     -3.36830717	     -8.65544032	      3.82744362	      1.80419563	      6.63561383	    -16.99282638	     -3.48167296	    118.25767406	     44.16192736	      0.00000000	      0.00000000	     -5.02766861	     -7.05057113	     -4.19280284	     28.72264352	     45.89643031	      0.00000000	      0.00000000
      1.61300000	     -5.71768733	     -4.37613641	     -2.85160163	      0.97623182	      0.92785571	      0.50063839	     19.92077289	     -5.69045758	    -10.09275058	     60.01468732	     60.01468732	      7.39111185	    -13.25770324	     -1.36722933	     22.14205906	     -6.66736624	    -11.90098781	     21.49338602	     21.49338602	      7.87925441	     -9.57435249	     -3.56722908	     -8.76258957	      3.62002724	      1.68745230	      4.34099835	    -16.92131448	     -3.26060870	    115.58835563	     44.23122721	      0.00000000	      0.00000000	     -3.56281979	     -7.45856112	     -4.42247105	     29.41184867	     45.96066844	      0.00000000	      0.00000000
